<svg xmlns="http://www.w3.org/2000/svg" xmlns:xlink="http://www.w3.org/1999/xlink" viewBox="0 0 1500 1500" width="1500" height="1500" preserveAspectRatio="xMidYMid meet" style="width: 100%; height: 100%; transform: translate3d(0px, 0px, 0px); content-visibility: visible;"><defs><clipPath id="__lottie_element_1922"><rect width="1500" height="1500" x="0" y="0"></rect></clipPath><linearGradient id="__lottie_element_1935" spreadMethod="pad" gradientUnits="userSpaceOnUse" x1="-387" y1="-105" x2="6" y2="-105"><stop offset="50%" stop-color="rgb(204,62,62)"></stop><stop offset="74%" stop-color="rgb(219,69,107)"></stop><stop offset="99%" stop-color="rgb(234,75,151)"></stop></linearGradient></defs><g clip-path="url(#__lottie_element_1922)"><g transform="matrix(0.6054569482803345,0,0,0.5454569458961487,727.3378295898438,965.7388916015625)" opacity="0.18" style="display: block;"><g opacity="1" transform="matrix(1,0,0,1,0,0)"><path fill="rgb(79,61,127)" fill-opacity="1" d=" M430.3240051269531,308.0140075683594 C432.59100341796875,309.32598876953125 434.8030090332031,310.6629943847656 436.96099853515625,312.02099609375 C479.8269958496094,338.9949951171875 475.57598876953125,395.0929870605469 429.15899658203125,417.3179931640625 C341.1369934082031,459.4639892578125 253.11399841308594,501.61199951171875 165.0919952392578,543.7579956054688 C96.87999725341797,576.4190063476562 14.366999626159668,578.3469848632812 -55.8129997253418,548.9199829101562 C-134.3209991455078,516.0020141601562 -212.8280029296875,483.0840148925781 -291.33599853515625,450.1659851074219 C-352.0690002441406,424.70098876953125 -371.6050109863281,358.4939880371094 -332.32000732421875,311.27398681640625 C-332.32000732421875,311.27398681640625 -310.3550109863281,284.87298583984375 -310.3550109863281,284.87298583984375 C-174,210 22.67300033569336,173.13400268554688 97.07099914550781,184.01400756835938 C138,190 324.8330078125,246.98599243164062 430.3240051269531,308.0140075683594z"></path></g></g><g transform="matrix(0.8957766890525818,0,0,0.844178318977356,750,620.611572265625)" opacity="1" style="display: block;"><g opacity="1" transform="matrix(1,0,0,1,0,0)"><path fill="rgb(79,61,127)" fill-opacity="1" d=" M-359.4280090332031,-217.18800354003906 C-355.0090026855469,-49.25699996948242 -350.5889892578125,118.67500305175781 -346.1700134277344,286.6059875488281 C-335.4339904785156,294.1289978027344 -321.4849853515625,303.4909973144531 -304.7869873046875,313.6520080566406 C-304.1189880371094,314.0580139160156 -288.0039978027344,323.9960021972656 -272.9020080566406,332.0220031738281 C-233.45700073242188,352.9859924316406 -181.27699279785156,371.9530029296875 -181.27699279785156,371.9530029296875 C-98.9990005493164,401.4169921875 12.406000137329102,425.42498779296875 25.875,428.2980041503906 C17.51799964904785,337.2120056152344 12.392999649047852,237.2760009765625 12.875,129.6999969482422 C13.3100004196167,32.83399963378906 18.233999252319336,-57.68199920654297 25.875,-140.95599365234375 C-102.55999755859375,-166.36700439453125 -230.9929962158203,-191.77699279785156 -359.4280090332031,-217.18800354003906z"></path></g><g opacity="1" transform="matrix(1,0,0,1,0,-2.006999969482422)"><path fill="rgb(56,44,102)" fill-opacity="1" d=" M25.875,428.2980041503906 C85.61499786376953,418.2650146484375 162.1529998779297,399.1499938964844 245.45700073242188,361.1809997558594 C301.27398681640625,335.739990234375 347.95599365234375,307.3840026855469 385.6239929199219,280.9620056152344 C387.760009765625,221.6009979248047 389.3949890136719,162.2259979248047 390.52801513671875,102.83599853515625 C391.6719970703125,42.874000549316406 392.96099853515625,6.289000034332275 392.35400390625,-41.52299880981445 C391.7080078125,-92.43299865722656 389.6679992675781,-134.18099975585938 388,-162 C328.3550109863281,-157.8000030517578 268.68798828125,-153.96200561523438 208.9980010986328,-150.48500061035156 C147.9759979248047,-146.93099975585938 86.93399810791016,-143.75399780273438 25.875,-140.95599365234375 C14.220999717712402,-58.4379997253418 5.874000072479248,37.26599884033203 5.875,143.6999969482422 C5.875999927520752,250.11000061035156 14.222999572753906,345.7950134277344 25.875,428.2980041503906z"></path></g><g opacity="1" transform="matrix(1,0,0,1,0,0)"><path fill="rgb(87,73,137)" fill-opacity="1" d=" M-359.4280090332031,-217.18800354003906 C-249.2270050048828,-235.35800170898438 -139.02699279785156,-253.5279998779297 -28.826000213623047,-271.697998046875 C8.809000015258789,-262.22698974609375 46.41699981689453,-252.66099548339844 84,-243 C187.5229949951172,-216.38800048828125 290.8559875488281,-189.05499267578125 394,-161 C370.6099853515625,-154.90699768066406 335.01300048828125,-147.3520050048828 291,-145 C244.0449981689453,-142.49099731445312 245.0260009765625,-148.97900390625 204.44700622558594,-145.51499938964844 C197.55599975585938,-144.927001953125 129.15199279785156,-139.3300018310547 71.03700256347656,-120.44100189208984 C65.15899658203125,-118.53099822998047 48.279998779296875,-112.83100128173828 25.875,-113.61199951171875 C2.11899995803833,-114.44000244140625 -15.199999809265137,-122.11399841308594 -20.099000930786133,-124.16500091552734 C-47.805999755859375,-135.76100158691406 -146.9320068359375,-163.6300048828125 -359.4280090332031,-217.18800354003906z"></path></g><g opacity="1" transform="matrix(1,0,0,1,0,0)"><g opacity="1" transform="matrix(1,0,0,1,0,0)"><path fill="rgb(100,85,153)" fill-opacity="1" d=" M-154.531005859375,365.093994140625 C-154.531005859375,365.093994140625 -206.71099853515625,346.12701416015625 -246.156005859375,325.1629943847656 C-260.3710021972656,317.6080017089844 -268.0830078125,313.7120056152344 -275.3580017089844,308.42999267578125 C-311.6659851074219,282.0679931640625 -323.02398681640625,235.48500061035156 -330.4259948730469,188.0019989013672 C-343.6499938964844,103.18099975585938 -360.0090026855469,-11.008999824523926 -311.3680114746094,-152.5570068359375 C-304.0050048828125,-173.98300170898438 -296.8810119628906,-191.00900268554688 -292.30999755859375,-201.44400024414062 C-314.5400085449219,-205.96200561523438 -336.7699890136719,-210.48199462890625 -359,-215 C-360.9670104980469,-137.67599487304688 -361.20001220703125,-56.83100128173828 -359.197998046875,27.25200080871582 C-357.0459899902344,117.64099884033203 -352.4930114746094,204.197998046875 -346.1700134277344,286.6059875488281 C-328.2080078125,299.2409973144531 -308.6210021972656,311.802001953125 -287.3389892578125,323.8940124511719 C-211.52699279785156,366.9679870605469 -138.3560028076172,390.364990234375 -77.70099639892578,403.44000244140625 C-49.25199890136719,410.3450012207031 -20.80299949645996,417.25 7.645999908447266,424.1549987792969 C-46.41299819946289,404.4679870605469 -100.47200012207031,384.781005859375 -154.531005859375,365.093994140625z"></path></g></g><g opacity="1" transform="matrix(1,0,0,1,0,0)"><path fill="rgb(46,39,91)" fill-opacity="1" d=" M311.7449951171875,301.52099609375 C266.55499267578125,337.60400390625 245,357.1199951171875 247.07200622558594,360.07598876953125 C249.89599609375,364.1050109863281 296.62298583984375,337.3630065917969 387.239990234375,279.85699462890625 C389.3760070800781,220.49600219726562 391.010009765625,161.12100219726562 392.14300537109375,101.73100280761719 C393.95098876953125,6.951000213623047 394.48199462890625,-66.3030014038086 393.7359924316406,-161.11900329589844 C389.0069885253906,-160.07200622558594 381.8089904785156,-158.552001953125 373,-157 C320.5570068359375,-147.75999450683594 286.7760009765625,-150.7169952392578 286,-145 C285.76300048828125,-143.2550048828125 288.54901123046875,-140.30499267578125 303.4590148925781,-135.156005859375 C318.2659912109375,-83.8219985961914 332.4049987792969,-16.57900047302246 335.7749938964844,62.88199996948242 C339.92401123046875,160.6959991455078 326.29998779296875,242.70700073242188 311.7449951171875,301.52099609375z"></path></g><g opacity="1" transform="matrix(1,0,0,1,0,0)"><path fill="rgb(204,62,62)" fill-opacity="1" d=" M176,-138 C194.33700561523438,-72.91400146484375 212.3000030517578,15.071999549865723 214.79800415039062,120.05599975585938 C217.3780059814453,228.4929962158203 202.61900329589844,319.8070068359375 186.625,386.8680114746094 C214.2449951171875,374.4389953613281 241.86599731445312,362.0090026855469 269.4859924316406,349.5799865722656 C280.4169921875,272.0509948730469 287.4519958496094,178.51100158691406 282.7439880371094,72.82499694824219 C279.1130065917969,-8.675999641418457 269.1929931640625,-81.8280029296875 257,-145 C230,-142.66700744628906 203,-140.33299255371094 176,-138z"></path></g><g opacity="1" transform="matrix(1,0,0,1,0,0)"><path fill="rgb(175,49,49)" fill-opacity="1" d=" M303.4590148925781,474.70001220703125"></path></g><g opacity="1" transform="matrix(1,0,0,1,0,0)"><path fill="rgb(175,49,49)" fill-opacity="1" d=" M589.3289794921875,80.28299713134766"></path></g><g opacity="1" transform="matrix(1,0,0,1,0,0)"><path fill="rgb(178,47,47)" fill-opacity="1" d=" M283,73 C279.1300048828125,-6.673999786376953 269.6919860839844,-78.78700256347656 258,-142 C251,-142 244,-142 237,-142 C246.7239990234375,-78.5770034790039 254.18099975585938,-7.681000232696533 256.947998046875,69.64700317382812 C260.62799072265625,172.4980010986328 255.24200439453125,265.27899169921875 245.96200561523438,345.4169921875 C229.9219970703125,354.09600830078125 213.88299560546875,362.7760009765625 197.84300231933594,371.4549865722656 C196.95700073242188,376.6289978027344 196.06100463867188,381.7179870605469 195.15199279785156,386.70001220703125 C220.7270050048828,376.36700439453125 246.3000030517578,366.0329895019531 271.875,355.70001220703125 C282.1130065917969,275.53399658203125 288.2030029296875,180.11199951171875 283,73z"></path></g><g opacity="1" transform="matrix(1,0,0,1,0,0)"><path fill="rgb(204,62,62)" fill-opacity="1" d=" M-170,-168 C-191.44400024414062,-100.72899627685547 -213.9770050048828,-5.665999889373779 -217.2429962158203,109.697998046875 C-220.32699584960938,218.64199829101562 -205.2220001220703,310.10198974609375 -189.07000732421875,376.510009765625 C-216.69000244140625,364.08099365234375 -244.31100463867188,351.6520080566406 -271.9309997558594,339.2229919433594 C-282.5920104980469,261.8089904785156 -289.5480041503906,168.27099609375 -285.1889953613281,62.46699905395508 C-281.2279968261719,-33.68199920654297 -268.79901123046875,-118.68199920654297 -254,-190 C-226,-182.66700744628906 -198,-175.33299255371094 -170,-168z"></path></g><g opacity="1" transform="matrix(1,0,0,1,0,0)"><path fill="rgb(178,47,47)" fill-opacity="1" d=" M-289.7149963378906,59.4010009765625 C-285.90301513671875,-21.590999603271484 -275.5539855957031,-84.00800323486328 -273,-99 C-266.7799987792969,-135.51600646972656 -259.84600830078125,-166.4250030517578 -254,-190 C-242.66700744628906,-187.33299255371094 -231.33299255371094,-184.66700744628906 -220,-182 C-228.74600219726562,-161.5189971923828 -240.38600158691406,-131.1230010986328 -249.93899536132812,-93.1729965209961 C-265.2049865722656,-32.53099822998047 -265.02801513671875,15.473999977111816 -268.1709899902344,55.257999420166016 C-276.4809875488281,160.46200561523438 -274.18798828125,254.51800537109375 -267.5950012207031,333.8080139160156 C-244.01199340820312,341.9200134277344 -220.42799377441406,350.0320129394531 -196.84500122070312,358.1440124511719 C-195.7760009765625,363.33599853515625 -194.6929931640625,368.4429931640625 -193.5970001220703,373.4429931640625 C-221.2169952392578,361.0140075683594 -248.83700561523438,348.5849914550781 -276.4570007324219,336.156005859375 C-286.37701416015625,263.37200927734375 -294.7510070800781,166.4029998779297 -289.7149963378906,59.4010009765625z"></path></g><g opacity="0.44" transform="matrix(1,0,0,1,0,0)"><path fill="rgb(26,26,58)" fill-opacity="1" d=" M-206.125,-26.299999237060547 C-132.125,-0.9670000076293945 -58.125,24.367000579833984 15.875,49.70000076293945 C78.875,25.033000946044922 141.875,0.367000013589859 204.875,-24.299999237060547 C204.875,-25.299999237060547 204.875,-26.299999237060547 204.875,-27.299999237060547 C144.54200744628906,-10.633000373840332 84.20800018310547,6.0329999923706055 23.875,22.700000762939453 C-51.125,0.032999999821186066 -126.125,-22.632999420166016 -201.125,-45.29999923706055 C-202.79200744628906,-38.96699905395508 -204.45799255371094,-32.632999420166016 -206.125,-26.299999237060547z"></path></g><g opacity="1" transform="matrix(1,0,0,1,0,0)"><path fill="rgb(204,62,62)" fill-opacity="1" d=" M-259,-327"></path></g></g><g transform="matrix(0.9538470506668091,0,0,0.8989037275314331,750,620.611572265625)" opacity="1" style="display: block;"><g opacity="1" transform="matrix(1,0,0,1,0,0)"><path fill="rgb(39,36,84)" fill-opacity="1" d=" M47.388999938964844,-158.8820037841797 C189.91799926757812,-189.33999633789062 277.7590026855469,-206.5399932861328 420.28900146484375,-236.9980010986328 C422.0270080566406,-226.43699645996094 424.35699462890625,-213.31300354003906 427.4649963378906,-198.13499450683594 C432.24200439453125,-174.80599975585938 434.76800537109375,-169.30299377441406 439.3030090332031,-146.94200134277344 C446.4100036621094,-111.89299774169922 445.49700927734375,-99.35700225830078 438.4739990234375,-91.4260025024414 C436.8919982910156,-89.63899993896484 435.1440124511719,-88.24800109863281 431.84600830078125,-85.625 C431.84600830078125,-85.625 420.468994140625,-76.5780029296875 406.15899658203125,-70.70999908447266 C392.4129943847656,-65.0739974975586 247.77000427246094,-24.64699935913086 49.02799987792969,27.893999099731445 C48.481998443603516,-34.3650016784668 47.935001373291016,-96.62300109863281 47.388999938964844,-158.8820037841797z"></path></g><g opacity="1" transform="matrix(1,0,0,1,0,0)"><path fill="rgb(45,42,94)" fill-opacity="1" d=" M54.987998962402344,-162.73899841308594 C-68.6050033569336,-194.9429931640625 -192.6739959716797,-225.031005859375 -317.2170104980469,-253.00399780273438 C-333.6839904785156,-256.7019958496094 -350.1610107421875,-260.364013671875 -366.64898681640625,-263.989990234375 C-369.22601318359375,-241.0970001220703 -370.47900390625,-211.91700744628906 -366.9330139160156,-178.42999267578125 C-363.5060119628906,-146.06900024414062 -356.5459899902344,-118.62799835205078 -349.5329895019531,-97.22599792480469 C-306.5780029296875,-82.3030014038086 -262.65899658203125,-67.64199829101562 -217.78399658203125,-53.310001373291016 C-125.27200317382812,-23.764999389648438 -35.10300064086914,2.3329999446868896 52.34299850463867,25.408000946044922 C54.63600158691406,-6.206999778747559 56.12799835205078,-39.68299865722656 56.486000061035156,-74.85299682617188 C56.79800033569336,-105.4749984741211 56.22600173950195,-134.80999755859375 54.987998962402344,-162.73899841308594z"></path></g><g opacity="1" transform="matrix(1,0,0,1,0,0)"><path fill="rgb(79,61,127)" fill-opacity="1" d=" M-366.64898681640625,-263.989990234375 C-273.3420104980469,-273.60198974609375 -198.3000030517578,-286.5400085449219 -147.1280059814453,-296.54901123046875 C-28.3799991607666,-319.7749938964844 3.0190000534057617,-335.2829895019531 72.39199829101562,-329.1080017089844 C124.91600036621094,-324.4330139160156 122.80699920654297,-314.1289978027344 246.33999633789062,-283.0530090332031 C365.3059997558594,-253.12600708007812 420.4230041503906,-249.30799865722656 420.28900146484375,-236.9980010986328 C420.1579895019531,-224.93600463867188 367.1610107421875,-221.4239959716797 251.2310028076172,-196.67100524902344 C105.53600311279297,-165.56300354003906 111.23500061035156,-154.4550018310547 57.31399917602539,-152.7429962158203 C19.854000091552734,-151.5540008544922 -11.137999534606934,-156.01800537109375 -175.5240020751953,-204.94500732421875 C-250.36300659179688,-227.22000122070312 -315.00201416015625,-247.44400024414062 -366.64898681640625,-263.989990234375z"></path></g><g opacity="1" transform="matrix(1,0,0,1,0,0)"><path fill="rgb(155,47,47)" fill-opacity="1" d=" M207.19400024414062,-182.30599975585938 C125.21700286865234,-219.36199951171875 22.881000518798828,-255.0330047607422 -97.59300231933594,-274.74798583984375 C-134.86000061035156,-280.84698486328125 -170.5760040283203,-284.8800048828125 -204.46400451660156,-287.3399963378906 C-163.02099609375,-295.2869873046875 -121.5790023803711,-303.2330017089844 -80.13600158691406,-311.17999267578125 C-31.966999053955078,-303.7669982910156 22.562999725341797,-292.3030090332031 81.38700103759766,-274.4739990234375 C155.2570037841797,-252.0850067138672 218.4340057373047,-224.95399475097656 270.1940002441406,-198.78199768066406 C249.19400024414062,-193.2899932861328 228.19400024414062,-187.79800415039062 207.19400024414062,-182.30599975585938z"></path></g><g opacity="1" transform="matrix(1,0,0,1,0,0)"><path fill="rgb(155,47,47)" fill-opacity="1" d=" M-129.1230010986328,-195.0019989013672 C-55.624000549316406,-227.55099487304688 40.957000732421875,-259.7760009765625 156.7449951171875,-272.3550109863281 C194.29600524902344,-276.43499755859375 229.78399658203125,-278.0039978027344 262.8089904785156,-277.8630065917969 C232.427001953125,-286.9779968261719 202.04400634765625,-296.0920104980469 171.66200256347656,-305.2070007324219 C113.8499984741211,-299.1310119628906 48.525001525878906,-288.9259948730469 -22.233999252319336,-272.08099365234375 C-92.3239974975586,-255.39500427246094 -154.70599365234375,-235.2989959716797 -208.66900634765625,-214.88800048828125 C-182.1540069580078,-208.25900268554688 -155.63800048828125,-201.63099670410156 -129.1230010986328,-195.0019989013672z"></path></g><g opacity="1" transform="matrix(1,0,0,1,0,0)"><path fill="rgb(247,244,235)" fill-opacity="1" d=" M-68.26699829101562,-192.47999572753906 C-68.01300048828125,-189.16200256347656 -38.65700149536133,-193.3679962158203 17.82200050354004,-182.86700439453125 C34.72700119018555,-179.7239990234375 48.70100021362305,-176.26100158691406 58.61000061035156,-173.58200073242188 C52.13999938964844,-180.12899780273438 42.90999984741211,-187.8509979248047 30.481000900268555,-193.88900756835938 C-15.894000053405762,-216.41900634765625 -68.61000061035156,-196.96299743652344 -68.26699829101562,-192.47999572753906z"></path></g></g><g transform="matrix(0.9041352868080139,0.2864079177379608,-0.3039139211177826,0.8520554304122925,670.0633544921875,607.4747314453125)" opacity="1" style="display: block;"><g opacity="1" transform="matrix(1,0,0,1,0,0)"><path fill="url(#__lottie_element_1935)" fill-opacity="1" d=" M5.985000133514404,-253.68800354003906 C8.895999908447266,-243.3780059814453 -42.4739990234375,-236.2209930419922 -96.50599670410156,-190.24099731445312 C-174.10699462890625,-124.2030029296875 -161.83599853515625,-59.23500061035156 -235.6009979248047,2.5390000343322754 C-270.3070068359375,31.604000091552734 -307.4200134277344,46.027000427246094 -335.6510009765625,53.78499984741211 C-352.7330017089844,40.77000045776367 -369.8139953613281,27.7549991607666 -386.89599609375,14.739999771118164 C-354.90301513671875,4.235000133514404 -307.0799865722656,-16.232999801635742 -264.8840026855469,-58.46699905395508 C-195.79600524902344,-127.61599731445312 -205.67799377441406,-191.1699981689453 -137.99000549316406,-234.16600036621094 C-76.66799926757812,-273.1180114746094 2.484999895095825,-266.0840148925781 5.985000133514404,-253.68800354003906z"></path></g></g><g transform="matrix(0.9537935853004456,-0.009518662467598915,0.010100468061864376,0.8988533020019531,752.6138916015625,621.156982421875)" opacity="1" style="display: block;"><g opacity="1" transform="matrix(1,0,0,1,0,0)"><path fill="rgb(204,62,62)" fill-opacity="1" d=" M74.01499938964844,-248.68800354003906 C71.10399627685547,-238.3780059814453 122.4739990234375,-231.2209930419922 176.50599670410156,-185.24099731445312 C254.10699462890625,-119.2030029296875 241.83599853515625,-54.23500061035156 315.60101318359375,7.539000034332275 C350.3070068359375,36.604000091552734 387.4200134277344,51.027000427246094 415.6510009765625,58.78499984741211 C432.7330017089844,45.77000045776367 449.8139953613281,32.755001068115234 466.89599609375,19.739999771118164 C434.90301513671875,9.234999656677246 387.0799865722656,-11.232999801635742 344.8840026855469,-53.46699905395508 C275.7959899902344,-122.61599731445312 285.6780090332031,-186.1699981689453 217.99000549316406,-229.16600036621094 C156.66799926757812,-268.1180114746094 77.51499938964844,-261.0840148925781 74.01499938964844,-248.68800354003906z"></path></g><g opacity="1" transform="matrix(1,0,0,1,0,0)"><path fill="rgb(239,220,220)" fill-opacity="1" d=" M300.4590148925781,-57.555999755859375 C300.5379943847656,-57.61000061035156 312.9630126953125,-28.618000030517578 342.4590148925781,-11.555999755859375 C347.74200439453125,-8.5 354.6960144042969,-5.177000045776367 366.4590148925781,0.4440000057220459 C388.5480041503906,10.99899959564209 398.75,14.586000442504883 398.4590148925781,15.444000244140625 C398.0429992675781,16.67099952697754 375.63299560546875,13.8100004196167 354.4590148925781,2.444000005722046 C315.5820007324219,-18.423999786376953 300.3689880371094,-57.49399948120117 300.4590148925781,-57.555999755859375z"></path></g></g><g transform="matrix(0.9516384601593018,0.06113684922456741,-0.06487368792295456,0.8968223333358765,729.7415771484375,619.6900634765625)" opacity="1" style="display: block;"><g opacity="1" transform="matrix(1,0,0,1,0,0)"><path fill="rgb(204,62,62)" fill-opacity="1" d=" M-67.70899963378906,-269.2049865722656 C-124.31999969482422,-259.6659851074219 -207.66700744628906,-255.1439971923828 -297.5589904785156,-287.0979919433594 C-356.260986328125,-307.9649963378906 -421.66400146484375,-331.2130126953125 -433.95599365234375,-386.2510070800781 C-447.2349853515625,-445.7120056152344 -393.2309875488281,-518.5700073242188 -330.70001220703125,-533.9550170898438 C-268.22601318359375,-549.3259887695312 -211.59300231933594,-503.7929992675781 -170.0919952392578,-470.427001953125 C-131.0070037841797,-439.0039978027344 -123.65299987792969,-419.093994140625 -80.4260025024414,-373.1709899902344 C-33.32899856567383,-323.135986328125 12.692999839782715,-288.60198974609375 46.3650016784668,-266.2120056152344 C32.222999572753906,-261.8080139160156 18.08099937438965,-257.40399169921875 3.937999963760376,-253 C-45.301998138427734,-262.20001220703125 -79.84500122070312,-278.49798583984375 -100.73200225830078,-290.21600341796875 C-205.75999450683594,-349.13800048828125 -227.2239990234375,-439.0690002441406 -318.4859924316406,-453.5039978027344 C-328.88299560546875,-455.14898681640625 -361.5880126953125,-460.3219909667969 -369.01800537109375,-446.9960021972656 C-382.2130126953125,-423.3290100097656 -312.4200134277344,-347.1669921875 -230.41799926757812,-312.4200134277344 C-177.3470001220703,-289.9320068359375 -128.64999389648438,-288.8110046386719 -100.73200225830078,-290.21600341796875"></path></g><g opacity="1" transform="matrix(1,0,0,1,0,0)"><path fill="rgb(183,48,48)" fill-opacity="1" d=" M-99,-290 C-125.23500061035156,-290.1940002441406 -182.93099975585938,-288.1289978027344 -227.6439971923828,-306.4679870605469 C-291.1390075683594,-332.510009765625 -330.45001220703125,-374.34698486328125 -349.2120056152344,-397.4209899902344 C-362.12799072265625,-400.1940002441406 -378.70599365234375,-405.1780090332031 -396.5950012207031,-414.5350036621094 C-408.9809875488281,-421.0140075683594 -419.1839904785156,-428.1189880371094 -427.2879943847656,-434.62298583984375 C-428.6130065917969,-429.1109924316406 -430.1310119628906,-421.14801025390625 -430.59100341796875,-411.47100830078125 C-430.59100341796875,-411.47100830078125 -431.5610046386719,-391.0539855957031 -425.7170104980469,-370.5589904785156 C-420.8380126953125,-353.44500732421875 -391.385986328125,-310.87799072265625 -292.7820129394531,-280.9389953613281 C-247.47000122070312,-267.1809997558594 -154.3419952392578,-256.3710021972656 -54,-269 C-79.63099670410156,-283.3970031738281 -84.53600311279297,-284.07598876953125 -99,-290z"></path></g><g opacity="1" transform="matrix(1,0,0,1,0,0)"><path fill="rgb(239,220,220)" fill-opacity="1" d=" M-369.8280029296875,-480.1300048828125 C-368.3590087890625,-477.36199951171875 -340.0459899902344,-499.6390075683594 -296.31298828125,-497.1260070800781 C-266.2659912109375,-495.39898681640625 -245.9510040283203,-482.947998046875 -245.46600341796875,-484.6759948730469 C-244.85899353027344,-486.8420104980469 -275.6080017089844,-510.6059875488281 -311.9639892578125,-509.12200927734375 C-347.510986328125,-507.6709899902344 -371.2380065917969,-482.7850036621094 -369.8280029296875,-480.1300048828125z"></path></g><g opacity="1" transform="matrix(1,0,0,1,0,0)"><path fill="rgb(204,62,62)" fill-opacity="1" d=" M62.97800064086914,-236.16299438476562 C117.17900085449219,-221.16700744628906 197.93699645996094,-208.36500549316406 288.7460021972656,-230.44700622558594 C348.0469970703125,-244.86700439453125 414.1180114746094,-260.9339904785156 431.6390075683594,-313.32501220703125 C450.5669860839844,-369.9259948730469 405.28399658203125,-446.3590087890625 345.90399169921875,-467.64801025390625 C286.5769958496094,-488.9179992675781 226.8070068359375,-450.2550048828125 183.0070037841797,-421.9230041503906 C141.75799560546875,-395.2409973144531 132.58599853515625,-376.5820007324219 85.83999633789062,-336.18798828125 C34.909000396728516,-292.1780090332031 -0.9350000023841858,-271.42498779296875 -36,-253 C-22.663999557495117,-247.28399658203125 -21.80500030517578,-233.30599975585938 -8.468000411987305,-227.58999633789062 C40.4379997253418,-231.59500122070312 75.73799896240234,-243.99600219726562 97.27100372314453,-253.30999755859375 C205.54600524902344,-300.1449890136719 235.5189971923828,-385.6130065917969 325.89898681640625,-390.48699951171875 C336.1960144042969,-391.0419921875 368.5849914550781,-392.7879943847656 374.48199462890625,-379.05499267578125 C384.9549865722656,-354.6650085449219 309.2770080566406,-287.4830017089844 225.87399291992188,-261.8840026855469 C171.89599609375,-245.31700134277344 124.33300018310547,-249.12899780273438 97.27100372314453,-253.30999755859375"></path></g><g opacity="1" transform="matrix(1,0,0,1,0,0)"><path fill="rgb(183,48,48)" fill-opacity="1" d=" M95,-253 C121.41200256347656,-250.5469970703125 173.08799743652344,-244.7779998779297 219.97500610351562,-258.1440124511719 C286.5580139160156,-277.125 330.4540100097656,-313.9309997558594 351.7279968261719,-334.52398681640625 C365.010009765625,-335.92498779296875 382.20599365234375,-339.11199951171875 401.17498779296875,-346.4280090332031 C414.3089904785156,-351.4939880371094 425.3110046386719,-357.3890075683594 434.1400146484375,-362.9110107421875 C434.8999938964844,-357.406005859375 435.5989990234375,-349.4939880371094 435.05499267578125,-340.01800537109375 C435.05499267578125,-340.01800537109375 433.9079895019531,-320.0260009765625 425.89801025390625,-300.6440124511719 C419.2099914550781,-284.4590148925781 385.156005859375,-245.9499969482422 282.8479919433594,-226.70799255371094 C235.83399963378906,-217.86599731445312 148.62899780273438,-214.58700561523438 49,-237 C76.28199768066406,-248.44700622558594 79.83300018310547,-248.6840057373047 95,-253z"></path></g><g opacity="1" transform="matrix(1,0,0,1,0,0)"><path fill="rgb(239,220,220)" fill-opacity="1" d=" M306.89801025390625,-420.21600341796875 C307.0710144042969,-417.9939880371094 283.52899169921875,-418.2929992675781 253.19400024414062,-406.5639953613281 C220.5659942626953,-393.947998046875 204.31300354003906,-376.7869873046875 203.2100067138672,-378.1809997558594 C201.8179931640625,-379.93798828125 225.18800354003906,-410.3190002441406 263.0830078125,-419.875 C285.49798583984375,-425.5270080566406 306.7349853515625,-422.31500244140625 306.89801025390625,-420.21600341796875z"></path></g><g opacity="1" transform="matrix(1,0,0,1,0,0)"><path fill="rgb(204,62,62)" fill-opacity="1" d=" M71,-274 C71,-241.4149932861328 44.584999084472656,-215 12,-215 C-20.584999084472656,-215 -47,-241.4149932861328 -47,-274 C-47,-306.5849914550781 -20.584999084472656,-333 12,-333 C44.584999084472656,-333 71,-306.5849914550781 71,-274z"></path></g><g opacity="0.49" transform="matrix(1,0,0,1,0,0)"><path fill="rgb(183,48,48)" fill-opacity="1" d=" M8.270999908447266,-316.0010070800781 C40.85599899291992,-316.0010070800781 67.27100372314453,-289.58599853515625 67.27100372314453,-257.0010070800781 C67.27100372314453,-255.76800537109375 67.22000122070312,-254.5469970703125 67.14600372314453,-253.33299255371094 C69.7979965209961,-260.0429992675781 71.27100372314453,-267.3479919433594 71.27100372314453,-275.0010070800781 C71.27100372314453,-307.58599853515625 44.85599899291992,-334.0010070800781 12.270999908447266,-334.0010070800781 C-19.08099937438965,-334.0010070800781 -44.70800018310547,-309.5429992675781 -46.604000091552734,-278.6679992675781 C-37.96500015258789,-300.52801513671875 -16.660999298095703,-316.0010070800781 8.270999908447266,-316.0010070800781z"></path></g></g></g></svg>